<?xml version="1.0" encoding="UTF-8"?>
<!DOCTYPE svg PUBLIC "-//W3C//DTD SVG 1.1//EN" "http://www.w3.org/Graphics/SVG/1.1/DTD/svg11.dtd">
<svg version="1.1" xmlns="http://www.w3.org/2000/svg" xmlns:xlink="http://www.w3.org/1999/xlink" x="0" y="0" width="744.09" height="1052.4" viewBox="0, 0, 744.09, 1052.4">
  <g id="Layer_1">
    <path d="M566.478,926.48 L122.188,878.08 L123.626,938.213 L565.052,987.938 z" fill="#D38D5F" id="path3004"/>
    <path d="M357.088,109.53 L360.057,890.94 L119.567,866.566 L113.629,103.796 z" fill="#D38D5F" id="path3008"/>
    <path d="M310.768,150.93 L157.908,146.644 L162.194,836.644 L312.194,848.073 z" fill="#C87137" id="path3010"/>
    <path d="M353.628,109.51 z" fill="#D38D5F" id="path3012"/>
    <path d="M362.198,885.22 L355.055,885.22 L353.626,109.51 L358.626,115.224 z" fill="#C87137" id="path3014"/>
    <path d="M404.698,112.72 L410.768,116.65 L410.768,888.79 L406.839,888.076 z" fill="#D38D5F" id="path3018"/>
    <path d="M573.888,114.44 L403.678,111.41 L404.688,888.22 L570.358,905.393 z" fill="#D38D5F" id="path3020"/>
    <path d="M444.588,108.04 L445.598,894.6 L403.677,891.039 L403.172,109.059 z" fill="#C87137" id="path3022"/>
    <path d="M446.108,111.41 L446.108,893.04 L570.358,908.247 L573.893,114.447 z" fill="#C87137" id="path3024"/>
    <path d="M564.918,910.03 L564.918,906.254 L563.222,906.034 C559.868,905.598 409.972,890.084 407.032,889.869 C405.376,889.747 403.7,889.508 403.308,889.337 C402.915,889.165 393.853,888.377 383.171,887.584 C372.488,886.792 363.649,886.044 363.528,885.923 C363.407,885.801 363.119,844.43 362.888,793.985 C362.657,743.541 362.375,702.07 362.262,701.829 C362.148,701.587 362.136,719.612 362.234,741.884 C362.333,764.155 362.519,805.8 362.648,834.428 L362.882,886.478 L359.97,886.478 L357.058,886.478 L357.058,887.911 C357.058,888.965 356.911,889.345 356.505,889.345 C356.202,889.345 347.483,888.451 337.13,887.36 C326.777,886.268 317.905,885.421 317.414,885.478 C316.923,885.535 371.726,891.854 439.204,899.519 C506.677,907.185 562.564,913.535 563.404,913.631 L564.922,913.806 L564.922,910.03 z" fill="#784421" id="path3036"/>
    <path d="M564.798,924.01 L564.783,920.759 L564.451,923.284 L564.118,925.809 L563.739,925.777 C563.531,925.76 511.033,920.43 447.079,913.933 C383.124,907.437 330.679,902.142 330.529,902.167 C330.336,902.201 330.384,902.237 330.707,902.301 C331.234,902.406 564.047,927.261 564.497,927.261 L564.81,927.261 L564.796,924.01 z" fill="#784421" id="path3038"/>
    <path d="M340.348,887.65 C340.244,887.625 337.63,887.317 334.54,886.964 C326.934,886.097 317.446,884.941 317.38,884.874 C317.282,884.777 318.109,884.817 320.34,885.019 C321.548,885.128 322.665,885.199 322.823,885.177 C322.981,885.154 308.271,883.581 290.134,881.681 C271.997,879.781 257.093,878.248 257.014,878.274 C256.851,878.328 339.896,887.742 340.285,887.714 C340.441,887.702 340.465,887.678 340.348,887.65 z" fill="#784421" id="path3040"/>
    <g id="g3165">
      <path d="M571.368,421.52 L387.018,414.449 L387.018,426.571 L572.378,431.622 z" fill="#D38D5F" id="path3026"/>
      <path d="M388.988,415.46 L446.083,404.319 L579.309,406.328 L572.326,421.52 z" fill="#D38D5F" id="path3028"/>
    </g>
    <g id="g3165-5">
      <path d="M573.643,580.754 L389.667,567.057 L389.231,579.171 L574.289,590.886 z" fill="#D38D5F" id="path3026-9"/>
      <path d="M391.599,568.138 L446.083,544.91 L566.589,551.605 L574.6,580.789 z" fill="#D38D5F" id="path3028-1"/>
    </g>
    <path d="M575.408,272.021 L391.058,264.95 L391.058,277.072 L576.418,282.123 z" fill="#D38D5F" id="path3026-4"/>
    <g id="g3165-2">
      <path d="M565.193,903.156 L354.277,881.948 L352.972,892.992 L565.734,913.294 z" fill="#D38D5F" id="path3026-5"/>
      <path d="M388.712,899.787 L444.71,858.901 L610.076,869.1 L571.573,914.337 z" fill="#D38D5F" id="path3028-48"/>
    </g>
    <g id="g3165-4">
      <path d="M573.471,735.855 L389.604,720.777 L389.077,732.887 L574.041,745.991 z" fill="#D38D5F" id="path3026-40"/>
      <path d="M391.528,721.873 L448.761,694.204 L568.598,698.89 L574.428,735.897 z" fill="#D38D5F" id="path3028-37"/>
    </g>
    <path d="M636,120 L631,923 L578.902,989.483 L583.614,103.36 z" fill="#784421" id="path3000"/>
    <path d="M583.628,113.731 L567.144,116.588 L561.901,987.64 L579.081,989.483 z" fill="#D38D5F" id="path3002"/>
    <path d="M404.948,109.15 L357.558,109.15 L361.349,887.69 L406.843,890.931 z" fill="#D38D5F" id="path3016"/>
    <path d="M583.614,116.206 L106.101,107.34 L106.496,93.122 L583.783,103.12 z" fill="#D38D5F" id="path2998"/>
    <path d="M393.068,451.7 L391.553,529.482 C381.361,540.297 373.87,534.898 366.299,529.987 L367.309,453.215 C375.895,447.744 384.482,446.409 393.068,451.7 z" fill="#B3B3B3" id="path3030"/>
    <path d="M386.508,464.83 L371.861,465.335 L371.356,511.802 L386.508,512.307 z" fill="#333333" id="path3032"/>
    <path d="M338.528,487.56 C339.469,490.759 343.272,493.958 338.023,497.156 C331.962,501.014 325.901,507.463 319.84,497.156 C315.572,492.498 319.234,489.425 321.355,486.044 C325.978,482.696 331.229,481.543 338.528,487.56 z" fill="#4D4D4D" id="path3034"/>
    <path d="M116.417,937.387 L106.101,105.365 L116.478,105.227 L123.621,863.797 L567.838,911.279 L564.172,928.693 L123.76,883.323 L124.891,938.359 z" fill="#D38D5F" id="path3006"/>
    <path d="M300.768,151.65 L300.768,847.36 L283.625,845.931 L287.911,148.791 z" fill="#502D16" id="path3706" opacity="0.339"/>
    <path d="M272.198,152.35 L272.198,845.93 L255.055,844.506 L259.341,149.506 z" fill="#502D16" id="path3706-1" opacity="0.339"/>
    <path d="M216.478,150.2 L216.478,841.29 L199.335,839.871 L203.621,147.361 z" fill="#502D16" id="path3706-3" opacity="0.339"/>
    <path d="M189.338,150.19 L189.338,838.43 L172.195,837.017 L176.481,147.357 z" fill="#502D16" id="path3706-8" opacity="0.339"/>
    <path d="M243.628,151.63 L243.628,843.43 L226.485,842.01 L230.771,148.79 z" fill="#502D16" id="path3706-67" opacity="0.339"/>
    <path d="M444,119 L401,112 L571.87,114.729 L569,122 z" fill="#D38D5F" id="path3028"/>
  </g>
</svg>
