<?xml version="1.0" encoding="UTF-8"?>
<!DOCTYPE svg PUBLIC "-//W3C//DTD SVG 1.1//EN" "http://www.w3.org/Graphics/SVG/1.1/DTD/svg11.dtd">
<svg version="1.1" xmlns="http://www.w3.org/2000/svg" xmlns:xlink="http://www.w3.org/1999/xlink" x="0" y="0" width="192.065" height="123.042" viewBox="0, 0, 192.065, 123.042">
  <g id="Capa_1">
    <path d="M44.37,20.627 L45.796,96.485 L49.717,99.361 L50.124,96.5 L50.789,21.928" fill="#D08520" id="path108089-3"/>
    <path d="M57.404,19.735 L55.393,96.019 L49.582,99.257 L49.558,22.748" fill="#A66113" id="path108087-6"/>
    <g id="g4222">
      <path d="M109.797,21.563 L112.62,97.367 L115.854,99.492 L117.034,97.273 L116.365,22.701" fill="#D08520" id="path108089-7"/>
      <path d="M122.275,19.956 L121.363,96.28 L115.841,99.361 L114.579,23.188" fill="#A66113" id="path108087-5"/>
    </g>
    <path d="M52.711,26.649 L53.071,36.577 L73.854,49.579 L73.675,37.282" fill="#E6A450" id="path108091"/>
    <path d="M135.943,34.456 L138.169,110.332 L142.315,112.618 L144.083,110.604 L144.716,36.138" fill="#D08520" id="path108085"/>
    <path d="M141.595,34.382 L142.133,46.032 L85.34,49.755 L86.059,35.779" fill="#E6A450" id="path108093"/>
    <path d="M72.122,33.648 L74.165,113.492 L78.766,115.773 L80.242,113.65 L81.303,39.082" fill="#D08520" id="path108089"/>
    <path d="M86.105,36.253 L84.188,112.54 L78.536,115.783 L78.472,39.274" fill="#E6A450" id="path108087"/>
    <path d="M149.673,33.481 L147.33,109.582 L141.55,112.505 L141.875,36.07" fill="#E6A450" id="path108083"/>
    <path d="M42.534,14.18 L42.636,20.609 L72.783,40.904 C99.896,36.345 130.686,44.981 153.444,33.843 L153.444,28.727" fill="#D08520" id="path108081"/>
    <path d="M119.511,9.875 C99.343,9.619 65.163,9.716 42.555,14.207 L72.244,35.481 C100.043,30.628 127.805,37.259 153.362,28.875 z" fill="#A66113" id="path108079"/>
  </g>
</svg>
